<?xml version="1.0" ?><svg id="Layer_1" style="enable-background:new 0 0 48 48;" version="1.1" viewBox="0 0 48 48" xml:space="preserve" xmlns="http://www.w3.org/2000/svg" xmlns:xlink="http://www.w3.org/1999/xlink"><path d="M42,24c0-5-2-9.7-5.7-13.1C33,7.8,28.7,6,24,6c0,0,0,0,0,0c0,0,0,0,0,0c0,0,0,0-0.1,0c-4.9,0-9.5,2-12.9,5.5  C7.8,14.9,6,19.3,6,24c0,4.9,2,9.5,5.5,13c0,0,0,0,0,0c0,0,0,0,0,0c3.3,3.2,7.7,5,12.4,5c0,0,0,0,0,0c0,0,0,0,0,0c0,0,0,0,0,0  c0,0,0,0,0,0c0,0,0,0,0,0c0,0,0,0,0,0c0,0,0,0,0,0c0,0,0,0,0,0c0,0,0,0,0,0c4.8,0,9.4-1.9,12.8-5.3C40.2,33.3,42,28.8,42,24z M8,25  h6.5c0.1,2.8,0.7,5.4,1.8,8c-1.4,0.5-2.7,1.2-4,2C9.8,32.2,8.3,28.8,8,25z M12,13.5c1.4,0.8,2.8,1.4,4.2,1.9c-1,2.4-1.6,5-1.7,7.6H8  C8.3,19.5,9.6,16.2,12,13.5z M39.9,23h-6.5c-0.1-2.8-0.8-5.5-1.9-8.1c1.4-0.5,2.7-1.2,3.9-2C38.2,15.7,39.7,19.2,39.9,23z M25,9.2  c1.5,1.4,2.7,2.9,3.7,4.6c-1.2,0.3-2.5,0.5-3.7,0.7V9.2z M23,14.5c-1.3,0-2.6-0.2-3.9-0.4c1-1.9,2.3-3.5,3.9-5V14.5z M18.2,15.9  c1.6,0.4,3.2,0.6,4.8,0.6V23h-6.5C16.6,20.6,17.2,18.2,18.2,15.9z M23,25v6.6c-1.6,0.1-3.2,0.4-4.7,0.8c-1-2.3-1.6-4.8-1.8-7.3H23z   M23,33.6v5.3c-1.5-1.4-2.8-3-3.8-4.7C20.5,33.9,21.7,33.7,23,33.6z M25,33.5c1.3,0,2.6,0.2,3.9,0.5c-1,1.8-2.3,3.4-3.9,4.9V33.5z   M29.8,32.2c-1.6-0.4-3.2-0.6-4.8-0.6V25h6.5C31.4,27.5,30.8,29.9,29.8,32.2z M25,23v-6.6c1.6-0.1,3.1-0.4,4.7-0.8  c1.1,2.3,1.7,4.8,1.8,7.4H25z M30.7,13.2c-1-1.8-2.2-3.4-3.7-4.9c2.6,0.5,5,1.6,7,3.2C32.9,12.2,31.8,12.7,30.7,13.2z M17.1,13.6  c-1.3-0.4-2.5-0.9-3.7-1.5c2.1-1.9,4.7-3.2,7.5-3.7C19.4,9.9,18.1,11.6,17.1,13.6z M17.3,34.8c1,1.8,2.2,3.5,3.7,4.9  c-2.6-0.5-5-1.6-7.1-3.3C14.9,35.8,16.1,35.2,17.3,34.8z M30.8,34.6c1.2,0.4,2.4,0.9,3.6,1.6c-2.1,1.8-4.7,3.1-7.4,3.6  C28.5,38.2,29.8,36.5,30.8,34.6z M31.7,32.8c1.1-2.5,1.6-5,1.8-7.7H40c-0.2,3.6-1.6,7-4.1,9.7C34.6,33.9,33.2,33.3,31.7,32.8z"/></svg>