<?xml version="1.0" ?><!DOCTYPE svg  PUBLIC '-//W3C//DTD SVG 1.1//EN'  'http://www.w3.org/Graphics/SVG/1.1/DTD/svg11.dtd'><svg enable-background="new 0 0 64 64" height="64px" version="1.1" viewBox="0 0 64 64" width="64px" xml:space="preserve" xmlns="http://www.w3.org/2000/svg" xmlns:xlink="http://www.w3.org/1999/xlink"><g id="coronavirus_x2C__covid_19_x2C__news_x2C__virus_x2C__document"><g id="algorithm_3_"><g id="taxes_1_"><g id="algorithm_4_"><g id="News__x26__Events_2_"><g id="XMLID_1546_"><g id="XMLID_1547_"><g id="XMLID_1548_"><g id="XMLID_1549_"><path d="M6,9.5C6,7.57,7.57,6,9.5,6h5.417V5H9.5C7.019,5,5,7.019,5,9.5V11h8.25v-1H6V9.5z" fill="#37474F"/></g></g></g></g></g></g><g id="XMLID_1542_"><path d="M45.041,58H17.5c-1.93,0-3.5-1.571-3.5-3.502V9.5c0-1.412-0.653-2.675-1.675-3.5H47.5      C49.43,6,51,7.57,51,9.5V54h1V9.5C52,7.019,49.981,5,47.5,5h-38v1C11.43,6,13,7.57,13,9.5v44.998C13,56.98,15.019,59,17.5,59      h27.541V58z" fill="#37474F" id="XMLID_1543_"/></g><path d="M55.5,58.998h-38v-1c1.93,0,3.5-1.57,3.5-3.5V53h39v1.498     C60,56.979,57.981,58.998,55.5,58.998z M20.326,57.998H55.5c1.93,0,3.5-1.57,3.5-3.5V54H22v0.498     C22,55.91,21.346,57.173,20.326,57.998z" fill="#37474F" id="XMLID_1537_"/></g></g><g id="XMLID_1534_"><g><g><path d="M42.834,20.961l-0.906-0.423l-1.287,2.76c0.319,0.111,0.621,0.251,0.907,0.421L42.834,20.961z" fill="#37474F"/><path d="M35.364,34.614l0.906,0.423l1.089-2.334c-0.319-0.112-0.621-0.251-0.907-0.421L35.364,34.614z" fill="#37474F"/><path d="M32.329,29.955l0.342,0.939l1.868-0.679c-0.148-0.297-0.267-0.608-0.354-0.936L32.329,29.955z" fill="#37474F"/><path d="M46.213,25.97l-0.342-0.939l-2.354,0.856c0.141,0.3,0.252,0.614,0.331,0.943L46.213,25.97z" fill="#37474F"/><path d="M31.96,24.166l-0.422,0.906l2.76,1.287c0.111-0.319,0.251-0.621,0.421-0.907L31.96,24.166z" fill="#37474F"/><path d="M46.461,30.928l-2.759-1.287c-0.111,0.319-0.251,0.621-0.422,0.907l2.759,1.286L46.461,30.928z" fill="#37474F"/><path d="M36.976,20.956l-0.945,0.325l0.772,2.249c0.298-0.147,0.609-0.264,0.938-0.35L36.976,20.956z" fill="#37474F"/><path d="M41.019,35.798l0.945-0.325l-0.99-2.881c-0.304,0.13-0.622,0.233-0.953,0.302L41.019,35.798z" fill="#37474F"/></g><path d="M39,33.5c-3.032,0-5.5-2.467-5.5-5.5s2.468-5.5,5.5-5.5s5.5,2.467,5.5,5.5S42.032,33.5,39,33.5z M39,23.5     c-2.481,0-4.5,2.019-4.5,4.5s2.019,4.5,4.5,4.5s4.5-2.019,4.5-4.5S41.481,23.5,39,23.5z" fill="#37474F"/></g><rect fill="#37474F" height="1" id="XMLID_1555_" width="1" x="38" y="26"/><rect fill="#37474F" height="1" id="XMLID_1536_" width="1" x="41" y="28"/><rect fill="#37474F" height="1" id="XMLID_1535_" width="1" x="37" y="29"/></g><g><path d="M47,18H18v-7h29V18z M19,17h27v-5H19V17z" fill="#37474F"/></g><g><rect fill="#37474F" height="1" width="24" x="18" y="46"/></g><g><rect fill="#37474F" height="1" width="29" x="18" y="43"/></g><g><rect fill="#37474F" height="1" width="29" x="18" y="40"/></g><g><rect fill="#37474F" height="1" width="29" x="18" y="37"/></g><g><rect fill="#37474F" height="1" width="11" x="18" y="34"/></g><g><rect fill="#37474F" height="1" width="11" x="18" y="31"/></g><g><rect fill="#37474F" height="1" width="11" x="18" y="28"/></g><g><rect fill="#37474F" height="1" width="11" x="18" y="25"/></g><g><rect fill="#37474F" height="1" width="11" x="18" y="22"/></g></g></svg>