<?xml version="1.0" ?><svg viewBox="0 0 64 64" xmlns="http://www.w3.org/2000/svg"><g id="a"/><g id="b"/><g id="c"><path d="M50.1,38.76c-.4,0-.72-.32-.72-.72s.32-.72,.72-.72c.19,0,.37,.08,.51,.21,.39,.39,1.02,.39,1.41,0s.39-1.02,0-1.41c-.27-.27-.58-.46-.92-.6v-.28c0-.55-.45-1-1-1s-1,.45-1,1v.29c-1,.4-1.72,1.37-1.72,2.52,0,1.5,1.22,2.72,2.72,2.72,.4,0,.72,.32,.72,.72s-.32,.72-.72,.72c-.19,0-.37-.08-.51-.21-.39-.39-1.02-.39-1.41,0s-.39,1.02,0,1.41c.27,.27,.58,.46,.92,.6v.28c0,.55,.45,1,1,1s1-.45,1-1v-.29c1.01-.4,1.72-1.37,1.72-2.52,0-1.5-1.22-2.72-2.72-2.72Z"/><path d="M29.09,36.72c.27,0,.52-.11,.71-.29,.39-.39,.39-1.03,0-1.41-.19-.19-.44-.29-.71-.29s-.52,.11-.71,.29c-.39,.39-.39,1.03,0,1.41,.19,.19,.44,.29,.71,.29Z"/><path d="M33.24,36.72c.27,0,.52-.11,.71-.29,.39-.39,.39-1.03,0-1.41-.19-.19-.44-.29-.71-.29s-.52,.11-.71,.29c-.39,.39-.39,1.03,0,1.41,.19,.19,.44,.29,.71,.29Z"/><path d="M55.29,19.03h-2.19c-.22-.16-.46-.29-.74-.34l-1.88-.32-.88-1.69c-.31-.58-.91-.94-1.56-.94s-1.26,.36-1.56,.95l-.88,1.69-1.88,.32c-.28,.05-.52,.18-.74,.34h-1.61l1.19-1.22c.39-.39,.6-.91,.6-1.46,0-1.02-.73-1.89-1.74-2.06l-2.47-.42-1.16-2.22h0c-.36-.69-1.07-1.12-1.85-1.12s-1.49,.43-1.85,1.12l-1.16,2.22-2.47,.42c-1.01,.17-1.74,1.04-1.74,2.06,0,.55,.21,1.07,.59,1.46l1.19,1.22h-1.61c-.22-.16-.46-.29-.74-.34l-1.88-.32-.88-1.69h0c-.31-.58-.9-.94-1.56-.94s-1.26,.36-1.56,.94l-.88,1.69-1.88,.32c-.28,.05-.52,.18-.74,.34h-5c-.46-2.24-2.45-3.93-4.83-3.93-2.72,0-4.93,2.21-4.93,4.93v28.52c0,2.72,2.21,4.93,4.93,4.93H51.36c2.44,0,4.46-1.79,4.85-4.12,2.14-.44,3.79-2.25,3.79-4.53V23.74c0-2.6-2.11-4.71-4.71-4.71Zm2.71,4.71v5.64H13.86v-8.35h4.28c.08,.23,.21,.45,.39,.63l1.33,1.36-.27,1.86c-.02,.09-.02,.19-.02,.28,0,.97,.79,1.76,1.76,1.76,.27,0,.54-.06,.78-.18l1.71-.84,1.71,.84c.24,.12,.51,.18,.78,.18,.97,0,1.76-.79,1.76-1.76,0-.08,0-.16-.02-.26l-.28-1.88,1.33-1.36c.18-.18,.3-.4,.38-.63h1.35l-.16,1.07c-.01,.1-.02,.19-.02,.29,0,1.15,.94,2.09,2.09,2.09,.32,0,.64-.07,.93-.22l2.25-1.11,2.25,1.11c.29,.14,.61,.22,.93,.22,1.15,0,2.09-.94,2.09-2.09,0-.11,0-.22-.02-.3l-.15-1.05h1.35c.08,.23,.21,.45,.38,.63l1.33,1.36-.27,1.87c-.01,.09-.02,.18-.02,.27,0,.97,.79,1.76,1.76,1.76,.27,0,.54-.06,.78-.18l1.71-.84,1.71,.84c.24,.12,.51,.18,.78,.18,.97,0,1.76-.79,1.76-1.76,0-.08,0-.16-.02-.26l-.28-1.88,1.33-1.36c.18-.18,.3-.4,.39-.64h1.57c1.5,0,2.71,1.22,2.71,2.71Zm-11.58-3.48c.31-.05,.57-.25,.72-.52l.9-1.73,.91,1.73c.14,.28,.41,.47,.72,.52l1.92,.33-1.36,1.39c-.22,.22-.32,.54-.27,.84l.29,1.93-1.75-.87c-.14-.07-.29-.1-.44-.1s-.3,.03-.44,.1l-1.75,.87,.28-1.93c.04-.31-.06-.62-.27-.84l-1.36-1.39,1.92-.33Zm-15.64-4l2.96-.5c.31-.05,.57-.25,.72-.52l1.47-2.71s.07,.02,.08,.05l1.39,2.66c.14,.28,.41,.47,.72,.52l2.96,.5s.08,.05,.05,.15l-2.1,2.15c-.22,.22-.32,.54-.27,.84l.44,2.99s-.04,.09-.13,.08l-2.69-1.33c-.28-.14-.61-.14-.89,0l-2.73,1.34s-.09-.04-.09-.1l.44-2.97c.04-.31-.06-.62-.27-.84l-2.12-2.21s.03-.08,.07-.09Zm-8.58,4c.31-.05,.57-.25,.72-.52l.9-1.73,.9,1.73c.15,.28,.41,.47,.72,.52l1.92,.33-1.36,1.39c-.22,.22-.32,.54-.27,.84l.29,1.93-1.75-.87c-.14-.07-.29-.1-.44-.1s-.3,.03-.44,.1l-1.75,.87,.28-1.93c.05-.31-.06-.62-.27-.84l-1.36-1.39,1.92-.33Zm-16.2-.23c0-1.62,1.32-2.93,2.93-2.93s2.93,1.32,2.93,2.93v6.39c-.82-.61-1.83-.97-2.93-.97s-2.11,.36-2.93,.97v-6.39Zm2.93,7.42c1.62,0,2.93,1.32,2.93,2.93v14.23c-.82-.61-1.83-.99-2.93-.99s-2.11,.38-2.93,.99v-14.23c0-1.62,1.32-2.93,2.93-2.93Zm42.42,24.03H8.93c-1.62,0-2.93-1.32-2.93-2.93s1.32-2.93,2.93-2.93,2.93,1.32,2.93,2.93c0,.55,.45,1,1,1H54.09c-.41,1.12-1.47,1.93-2.73,1.93Zm3.93-3.93H13.86V31.38H58v13.46c0,1.5-1.22,2.71-2.71,2.71Z"/><path d="M39.35,25.95h-6.84c-.55,0-1,.45-1,1s.45,1,1,1h6.84c.55,0,1-.45,1-1s-.45-1-1-1Z"/><path d="M24.33,34.3h-7.8c-.55,0-1,.45-1,1v8.91c0,.55,.45,1,1,1h7.8c.55,0,1-.45,1-1v-8.91c0-.55-.45-1-1-1Zm-1,8.91h-5.8v-6.91h5.8v6.91Z"/><path d="M37.39,36.72c.26,0,.52-.11,.71-.29,.39-.39,.39-1.03,0-1.41-.19-.19-.44-.29-.71-.29s-.52,.11-.71,.29c-.39,.39-.39,1.03,0,1.41,.19,.19,.44,.29,.71,.29Z"/><path d="M29.09,41.55h6.84c.55,0,1-.45,1-1s-.45-1-1-1h-6.84c-.55,0-1,.45-1,1s.45,1,1,1Z"/><path d="M42.71,43.21h-13.63c-.55,0-1,.45-1,1s.45,1,1,1h13.63c.55,0,1-.45,1-1s-.45-1-1-1Z"/></g><g id="d"/><g id="e"/><g id="f"/><g id="g"/><g id="h"/><g id="i"/><g id="j"/><g id="k"/><g id="l"/><g id="m"/><g id="n"/><g id="o"/><g id="p"/><g id="q"/><g id="r"/><g id="s"/><g id="t"/><g id="u"/><g id="v"/><g id="w"/><g id="x"/><g id="y"/><g id="a`"/><g id="aa"/><g id="ab"/><g id="ac"/><g id="ad"/><g id="ae"/><g id="af"/><g id="ag"/><g id="ah"/><g id="ai"/><g id="aj"/><g id="ak"/><g id="al"/><g id="am"/><g id="an"/><g id="ao"/><g id="ap"/><g id="aq"/><g id="ar"/><g id="as"/><g id="at"/><g id="au"/><g id="av"/><g id="aw"/><g id="ax"/></svg>